<?xml version="1.0" encoding="utf-8"?>
<!-- Generator: Adobe Illustrator 19.1.0, SVG Export Plug-In . SVG Version: 6.00 Build 0)  -->
<svg version="1.1" id="Layer_1" xmlns="http://www.w3.org/2000/svg" xmlns:xlink="http://www.w3.org/1999/xlink" x="0px" y="0px"
	 viewBox="-114 150 269.2 202" style="enable-background:new -114 150 269.2 202;" xml:space="preserve">
<style type="text/css">
	.st0{fill:#3E79B9;}
	.st1{fill:#3F79BA;}
</style>
<path class="st0" d="M-54.2,288.5c-0.3-0.6-0.7-1.1-1.2-1.6c-0.7-1-9.2-12.3-12.6-17.1c-2.3-3.1-4.7-6.1-6.9-9.2
	c-2.3-3.3-4.7-6.4-7.3-10.2c0-0.1-0.1-0.1-0.1-0.2c0-0.1,0.1-0.1,0.1-0.2c2.6-3.8,5-7,7.3-10.2c2.2-3.1,4.6-6.1,6.9-9.2
	c3.4-4.8,12-16.2,12.6-17.1c0.4-0.5,0.8-1,1.2-1.6c0.4-0.6,0.7-1.2,1-1.8c7.9-14.9-5.5-25.1-5.5-25.1c-0.5-0.4-1.1-0.8-1.9-1.1
	c-4.7-1.7-8.3-0.7-11.6,2.8c-1.2,1.3-2.2,2.7-3.3,4.1c-5.1,6.5-9.7,13.4-14.7,19.9c-4.2,5.5-7.8,11.5-12.1,16.9
	c-3,3.7-9.8,14.4-10.3,15.7c-0.8,2.3-1.3,4.5-1.4,6.5h0c0,0.1,0,0.3,0,0.4c0,0.1,0,0.3,0,0.4h0c0.1,2.1,0.5,4.2,1.4,6.5
	c0.5,1.3,7.3,12,10.3,15.7c4.3,5.4,7.9,11.4,12.1,16.9c5,6.5,9.6,13.4,14.7,19.9c1.1,1.4,2.1,2.8,3.3,4.1c3.3,3.5,6.9,4.5,11.6,2.8
	c0.7-0.3,1.3-0.6,1.9-1.1c0,0,13.4-10.1,5.5-25.1C-53.5,289.8-53.8,289.2-54.2,288.5z"/>
<path class="st0" d="M95.4,288.5c0.3-0.6,0.7-1.1,1.2-1.6c0.7-1,9.2-12.3,12.6-17.1c2.3-3.1,4.7-6.1,6.9-9.2
	c2.3-3.3,4.7-6.4,7.3-10.2c0-0.1,0.1-0.1,0.1-0.2c0-0.1-0.1-0.1-0.1-0.2c-2.6-3.8-5-7-7.3-10.2c-2.2-3.1-4.6-6.1-6.9-9.2
	c-3.4-4.8-12-16.2-12.6-17.1c-0.4-0.5-0.8-1-1.2-1.6c-0.4-0.6-0.7-1.2-1-1.8c-7.9-14.9,5.5-25.1,5.5-25.1c0.5-0.4,1.1-0.8,1.9-1.1
	c4.7-1.7,8.3-0.7,11.6,2.8c1.2,1.3,2.2,2.7,3.3,4.1c5.1,6.5,9.7,13.4,14.7,19.9c4.2,5.5,7.8,11.5,12.1,16.9
	c3,3.7,9.8,14.4,10.3,15.7c0.8,2.3,1.3,4.5,1.4,6.5h0c0,0.1,0,0.3,0,0.4c0,0.1,0,0.3,0,0.4h0c-0.1,2.1-0.5,4.2-1.4,6.5
	c-0.5,1.3-7.3,12-10.3,15.7c-4.3,5.4-7.9,11.4-12.1,16.9c-5,6.5-9.6,13.4-14.7,19.9c-1.1,1.4-2.1,2.8-3.3,4.1
	c-3.3,3.5-6.9,4.5-11.6,2.8c-0.7-0.3-1.3-0.6-1.9-1.1c0,0-13.4-10.1-5.5-25.1C94.7,289.8,95,289.2,95.4,288.5z"/>
<path class="st1" d="M61.9,243L61.9,243c-13.5,0-27,0-40.6,0c0,0,0,0,0,0c-0.2,0-0.4,0-0.5,0c0,0,0,0,0,0C7,243-6.5,243-20,243v0
	c-4.3,0.2-7.7,3.7-7.7,8.1s3.4,7.9,7.7,8.1c0,0,0,0,0,0h0.2v22.6h12v-22.6c1.4,0,2.7,0,4,0c2.3,0,4.6,0,7,0c0,7.5,0,15,0,22.6
	c3.9,0,7.7,0,12,0c0.1-7.4,0-15,0-22.7c1.8,0,3.6,0,5.4,0c0,0,0,0,0,0c0.2,0,0.4,0,0.5,0c0,0,0,0,0,0c1.8,0,3.6,0,5.4,0
	c0,7.7-0.1,15.3,0,22.7c4.3,0,8.1,0,12,0c0-7.6,0-15.1,0-22.6c2.4,0,4.7,0,7,0c1.3,0,2.7,0,4,0l0,22.6h12l0-22.6h0.2c0,0,0,0,0,0
	c4.3-0.2,7.7-3.7,7.7-8.1S66.1,243.2,61.9,243z"/>
<path class="st1" d="M72.8,335.8C72.8,335.8,72.8,335.8,72.8,335.8l-0.2,0v-1.5c0,0,0-0.1,0-0.1v-6.4v-14.6v-8h0.2c0,0,0,0,0,0
	c4.3-0.2,7.7-3.7,7.7-8.1s-3.4-7.9-7.7-8.1v0c-4.1,0-8.1,0-12.2,0l0,0.1c-13.4,0-26.9,0-40.3,0c-13.4,0-26.8,0-40.3,0l0-0.1
	c-4.1,0-8.1,0-12.2,0v0c-4.3,0.2-7.7,3.7-7.7,8.1s3.4,7.9,7.7,8.1c0,0,0,0,0,0h0.2v8v14.6v6.4c0,0,0,0.1,0,0.1v1.5h-0.2c0,0,0,0,0,0
	c-4.3,0.2-7.7,3.7-7.7,8.1s3.4,7.9,7.7,8.1v0c0,0,0.1,0,0.2,0c4,0,8,0,12,0c13.5,0,26.9,0,40.3,0s26.8,0,40.3,0c4,0,8,0,12,0
	c0,0,0.1,0,0.2,0v0c4.3-0.2,7.7-3.7,7.7-8.1S77.1,336,72.8,335.8z M-8.8,335.9c-3.6,0-7,0-10.9,0c0-7.7,0-15.1,0-22.7
	c3.5,0,7,0,10.9,0C-8.8,320.6-8.8,328.2-8.8,335.9z M15,335.9c-3.9,0-7.7,0-11.7,0c0-7.5,0-15,0-22.8c1.7,0,3.7-0.1,5.6-0.1
	c2,0,4,0,6.1,0C15,320.6,15,328,15,335.9z M37.4,335.9c-4,0-7.8,0-11.7,0c0-7.9,0-15.3,0-22.9c2.1,0,4.1,0,6.1,0
	c1.9,0,3.9,0.1,5.6,0.1C37.4,320.9,37.4,328.4,37.4,335.9z M60.4,335.9c-3.9,0-7.3,0-10.9,0c0-7.7,0-15.3,0-22.7c3.9,0,7.4,0,10.9,0
	C60.4,320.8,60.4,328.2,60.4,335.9z"/>
<path class="st0" d="M56.8,220.1L56.8,220.1C56.7,220,56.7,220,56.8,220.1c-2-8.1-4-16.1-8.8-22.9c-4.9-6.9-10.8-12.8-18.7-16.3
	c0.4-2.8-0.7-5.4,1.1-7.8c-0.6-2.1-0.9-4.3-1.7-6.3c-1-2.4-3-3.9-5.3-5.2c0-2.9-0.1-5.7,0-8.5c0.1-1.5-0.5-2.5-1.8-3.2
	c-0.1,0-0.1,0-0.2,0.1c-0.2,0-0.3,0-0.3,0c-1.3,0.7-1.9,1.7-1.8,3.2c0.1,2.8,0,5.6,0,8.5c-2.2,1.2-4.3,2.8-5.3,5.2
	c-0.8,2-1.2,4.2-1.7,6.3c1.8,2.3,0.7,5,1.1,7.8c-7.9,3.5-13.8,9.4-18.7,16.3c-4.9,6.8-6.8,14.8-8.8,22.8c0,0,0,0,0,0
	c-4.1,0-7.5,3.4-7.5,7.5s3.4,7.5,7.5,7.5c11.8,0,23.7,0,35.5,0c11.8,0,23.6,0,35.5,0c4.1,0,7.5-3.4,7.5-7.5S60.9,220.1,56.8,220.1z"
	/>
</svg>
